<mxfile host="Electron" agent="Mozilla/5.0 (Windows NT 10.0; Win64; x64) AppleWebKit/537.36 (KHTML, like Gecko) draw.io/26.2.2 Chrome/134.0.6998.178 Electron/35.1.2 Safari/537.36" version="26.2.2">
  <diagram name="Page-1" id="ND3t9Bst1LHc7djWpDPQ">
    <mxGraphModel dx="1166" dy="696" grid="1" gridSize="10" guides="1" tooltips="1" connect="1" arrows="1" fold="1" page="1" pageScale="1" pageWidth="200" pageHeight="200" math="0" shadow="0">
      <root>
        <mxCell id="0" />
        <mxCell id="1" parent="0" />
        <mxCell id="WvMqYt2JtQ77nI1b4Kcy-36" value="" style="rounded=0;whiteSpace=wrap;html=1;" vertex="1" parent="1">
          <mxGeometry x="135" y="60" width="380" height="480" as="geometry" />
        </mxCell>
        <mxCell id="WvMqYt2JtQ77nI1b4Kcy-2" value="Utium/ Authentication" style="text;html=1;align=center;verticalAlign=middle;whiteSpace=wrap;rounded=0;" vertex="1" parent="1">
          <mxGeometry x="280" y="70" width="70" height="30" as="geometry" />
        </mxCell>
        <mxCell id="WvMqYt2JtQ77nI1b4Kcy-3" value="User" style="shape=umlActor;verticalLabelPosition=bottom;verticalAlign=top;html=1;outlineConnect=0;" vertex="1" parent="1">
          <mxGeometry x="50" y="160" width="40" height="80" as="geometry" />
        </mxCell>
        <mxCell id="WvMqYt2JtQ77nI1b4Kcy-4" value="Admin" style="shape=umlActor;verticalLabelPosition=bottom;verticalAlign=top;html=1;outlineConnect=0;" vertex="1" parent="1">
          <mxGeometry x="50" y="280" width="40" height="80" as="geometry" />
        </mxCell>
        <mxCell id="WvMqYt2JtQ77nI1b4Kcy-5" value="SuperAdmin" style="shape=umlActor;verticalLabelPosition=bottom;verticalAlign=top;html=1;outlineConnect=0;" vertex="1" parent="1">
          <mxGeometry x="50" y="400" width="40" height="80" as="geometry" />
        </mxCell>
        <mxCell id="WvMqYt2JtQ77nI1b4Kcy-7" value="Login" style="ellipse;whiteSpace=wrap;html=1;" vertex="1" parent="1">
          <mxGeometry x="190" y="100" width="90" height="50" as="geometry" />
        </mxCell>
        <mxCell id="WvMqYt2JtQ77nI1b4Kcy-8" value="Register" style="ellipse;whiteSpace=wrap;html=1;" vertex="1" parent="1">
          <mxGeometry x="190" y="200" width="90" height="50" as="geometry" />
        </mxCell>
        <mxCell id="WvMqYt2JtQ77nI1b4Kcy-10" value="Verifiy Login" style="ellipse;whiteSpace=wrap;html=1;" vertex="1" parent="1">
          <mxGeometry x="370" y="100" width="90" height="50" as="geometry" />
        </mxCell>
        <mxCell id="WvMqYt2JtQ77nI1b4Kcy-14" value="Include" style="endArrow=open;endSize=12;dashed=1;html=1;rounded=0;entryX=0;entryY=0.5;entryDx=0;entryDy=0;exitX=1;exitY=0.5;exitDx=0;exitDy=0;" edge="1" parent="1" source="WvMqYt2JtQ77nI1b4Kcy-7" target="WvMqYt2JtQ77nI1b4Kcy-10">
          <mxGeometry width="160" relative="1" as="geometry">
            <mxPoint x="280" y="124.5" as="sourcePoint" />
            <mxPoint x="400" y="124.5" as="targetPoint" />
          </mxGeometry>
        </mxCell>
        <mxCell id="WvMqYt2JtQ77nI1b4Kcy-16" value="Extend" style="endArrow=open;endSize=12;dashed=1;html=1;rounded=0;entryX=0.5;entryY=1;entryDx=0;entryDy=0;exitX=0.5;exitY=0;exitDx=0;exitDy=0;" edge="1" parent="1" source="WvMqYt2JtQ77nI1b4Kcy-8" target="WvMqYt2JtQ77nI1b4Kcy-7">
          <mxGeometry width="160" relative="1" as="geometry">
            <mxPoint x="290" y="134.5" as="sourcePoint" />
            <mxPoint x="380" y="135" as="targetPoint" />
          </mxGeometry>
        </mxCell>
        <mxCell id="WvMqYt2JtQ77nI1b4Kcy-17" value="Login Error&lt;div&gt;Message&lt;/div&gt;" style="ellipse;whiteSpace=wrap;html=1;" vertex="1" parent="1">
          <mxGeometry x="310" y="200" width="90" height="50" as="geometry" />
        </mxCell>
        <mxCell id="WvMqYt2JtQ77nI1b4Kcy-18" value="Extend" style="endArrow=open;endSize=12;dashed=1;html=1;rounded=0;entryX=0;entryY=1;entryDx=0;entryDy=0;exitX=0.5;exitY=0;exitDx=0;exitDy=0;" edge="1" parent="1" source="WvMqYt2JtQ77nI1b4Kcy-17" target="WvMqYt2JtQ77nI1b4Kcy-10">
          <mxGeometry width="160" relative="1" as="geometry">
            <mxPoint x="290" y="134.5" as="sourcePoint" />
            <mxPoint x="380" y="135" as="targetPoint" />
          </mxGeometry>
        </mxCell>
        <mxCell id="WvMqYt2JtQ77nI1b4Kcy-20" value="" style="endArrow=open;endFill=1;endSize=12;html=1;rounded=0;entryX=0;entryY=0.5;entryDx=0;entryDy=0;exitX=0.5;exitY=0.5;exitDx=0;exitDy=0;exitPerimeter=0;" edge="1" parent="1" source="WvMqYt2JtQ77nI1b4Kcy-3" target="WvMqYt2JtQ77nI1b4Kcy-7">
          <mxGeometry width="160" relative="1" as="geometry">
            <mxPoint x="540" y="340" as="sourcePoint" />
            <mxPoint x="700" y="340" as="targetPoint" />
          </mxGeometry>
        </mxCell>
        <mxCell id="WvMqYt2JtQ77nI1b4Kcy-21" value="" style="endArrow=open;endFill=1;endSize=12;html=1;rounded=0;entryX=0;entryY=0.5;entryDx=0;entryDy=0;exitX=0.5;exitY=0.5;exitDx=0;exitDy=0;exitPerimeter=0;" edge="1" parent="1" source="WvMqYt2JtQ77nI1b4Kcy-3" target="WvMqYt2JtQ77nI1b4Kcy-8">
          <mxGeometry width="160" relative="1" as="geometry">
            <mxPoint x="100" y="198" as="sourcePoint" />
            <mxPoint x="200" y="135" as="targetPoint" />
          </mxGeometry>
        </mxCell>
        <mxCell id="WvMqYt2JtQ77nI1b4Kcy-22" value="Input User Info" style="ellipse;whiteSpace=wrap;html=1;" vertex="1" parent="1">
          <mxGeometry x="340" y="260" width="90" height="50" as="geometry" />
        </mxCell>
        <mxCell id="WvMqYt2JtQ77nI1b4Kcy-23" value="Include" style="endArrow=open;endSize=12;dashed=1;html=1;rounded=0;entryX=0;entryY=0.5;entryDx=0;entryDy=0;exitX=1;exitY=0.5;exitDx=0;exitDy=0;" edge="1" parent="1" source="WvMqYt2JtQ77nI1b4Kcy-8" target="WvMqYt2JtQ77nI1b4Kcy-22">
          <mxGeometry width="160" relative="1" as="geometry">
            <mxPoint x="290" y="134.5" as="sourcePoint" />
            <mxPoint x="380" y="135" as="targetPoint" />
          </mxGeometry>
        </mxCell>
        <mxCell id="WvMqYt2JtQ77nI1b4Kcy-25" value="Assign Role" style="ellipse;whiteSpace=wrap;html=1;" vertex="1" parent="1">
          <mxGeometry x="360" y="350" width="90" height="50" as="geometry" />
        </mxCell>
        <mxCell id="WvMqYt2JtQ77nI1b4Kcy-26" value="Include" style="endArrow=open;endSize=12;dashed=1;html=1;rounded=0;entryX=0.5;entryY=0;entryDx=0;entryDy=0;exitX=0.5;exitY=1;exitDx=0;exitDy=0;" edge="1" parent="1" source="WvMqYt2JtQ77nI1b4Kcy-22" target="WvMqYt2JtQ77nI1b4Kcy-25">
          <mxGeometry width="160" relative="1" as="geometry">
            <mxPoint x="290" y="265" as="sourcePoint" />
            <mxPoint x="350" y="295" as="targetPoint" />
          </mxGeometry>
        </mxCell>
        <mxCell id="WvMqYt2JtQ77nI1b4Kcy-27" value="Approve Admin&lt;div&gt;Creation&lt;/div&gt;" style="ellipse;whiteSpace=wrap;html=1;" vertex="1" parent="1">
          <mxGeometry x="280" y="470" width="90" height="50" as="geometry" />
        </mxCell>
        <mxCell id="WvMqYt2JtQ77nI1b4Kcy-28" value="" style="endArrow=open;endFill=1;endSize=12;html=1;rounded=0;entryX=0;entryY=0.5;entryDx=0;entryDy=0;exitX=0.5;exitY=0.5;exitDx=0;exitDy=0;exitPerimeter=0;" edge="1" parent="1" source="WvMqYt2JtQ77nI1b4Kcy-5" target="WvMqYt2JtQ77nI1b4Kcy-27">
          <mxGeometry width="160" relative="1" as="geometry">
            <mxPoint x="100" y="219" as="sourcePoint" />
            <mxPoint x="200" y="265" as="targetPoint" />
          </mxGeometry>
        </mxCell>
        <mxCell id="WvMqYt2JtQ77nI1b4Kcy-29" value="" style="endArrow=open;endFill=1;endSize=12;html=1;rounded=0;entryX=0.074;entryY=0.785;entryDx=0;entryDy=0;exitX=0.5;exitY=0.5;exitDx=0;exitDy=0;exitPerimeter=0;entryPerimeter=0;" edge="1" parent="1" source="WvMqYt2JtQ77nI1b4Kcy-4" target="WvMqYt2JtQ77nI1b4Kcy-8">
          <mxGeometry width="160" relative="1" as="geometry">
            <mxPoint x="100" y="219" as="sourcePoint" />
            <mxPoint x="200" y="265" as="targetPoint" />
          </mxGeometry>
        </mxCell>
        <mxCell id="WvMqYt2JtQ77nI1b4Kcy-30" value="" style="endArrow=open;endFill=1;endSize=12;html=1;rounded=0;entryX=0.044;entryY=0.74;entryDx=0;entryDy=0;exitX=0.5;exitY=0.5;exitDx=0;exitDy=0;exitPerimeter=0;entryPerimeter=0;" edge="1" parent="1" source="WvMqYt2JtQ77nI1b4Kcy-4" target="WvMqYt2JtQ77nI1b4Kcy-7">
          <mxGeometry width="160" relative="1" as="geometry">
            <mxPoint x="100" y="198" as="sourcePoint" />
            <mxPoint x="200" y="135" as="targetPoint" />
          </mxGeometry>
        </mxCell>
        <mxCell id="WvMqYt2JtQ77nI1b4Kcy-31" value="" style="endArrow=open;endFill=1;endSize=12;html=1;rounded=0;entryX=0;entryY=1;entryDx=0;entryDy=0;exitX=0.5;exitY=0.5;exitDx=0;exitDy=0;exitPerimeter=0;" edge="1" parent="1" source="WvMqYt2JtQ77nI1b4Kcy-5" target="WvMqYt2JtQ77nI1b4Kcy-7">
          <mxGeometry width="160" relative="1" as="geometry">
            <mxPoint x="80" y="690" as="sourcePoint" />
            <mxPoint x="210" y="695" as="targetPoint" />
          </mxGeometry>
        </mxCell>
        <mxCell id="WvMqYt2JtQ77nI1b4Kcy-32" value="Extend" style="endArrow=open;endSize=12;dashed=1;html=1;rounded=0;entryX=0;entryY=1;entryDx=0;entryDy=0;exitX=1;exitY=0;exitDx=0;exitDy=0;" edge="1" parent="1" source="WvMqYt2JtQ77nI1b4Kcy-27" target="WvMqYt2JtQ77nI1b4Kcy-25">
          <mxGeometry width="160" relative="1" as="geometry">
            <mxPoint x="245" y="240" as="sourcePoint" />
            <mxPoint x="245" y="160" as="targetPoint" />
          </mxGeometry>
        </mxCell>
        <mxCell id="WvMqYt2JtQ77nI1b4Kcy-33" value="Approve SuperAdmin&lt;div&gt;Creation&lt;/div&gt;" style="ellipse;whiteSpace=wrap;html=1;" vertex="1" parent="1">
          <mxGeometry x="190" y="340" width="90" height="50" as="geometry" />
        </mxCell>
        <mxCell id="WvMqYt2JtQ77nI1b4Kcy-34" value="" style="endArrow=open;endFill=1;endSize=12;html=1;rounded=0;entryX=0;entryY=1;entryDx=0;entryDy=0;" edge="1" parent="1" target="WvMqYt2JtQ77nI1b4Kcy-33">
          <mxGeometry width="160" relative="1" as="geometry">
            <mxPoint x="70" y="440" as="sourcePoint" />
            <mxPoint x="230" y="485" as="targetPoint" />
          </mxGeometry>
        </mxCell>
        <mxCell id="WvMqYt2JtQ77nI1b4Kcy-35" value="Extend" style="endArrow=open;endSize=12;dashed=1;html=1;rounded=0;entryX=0;entryY=0.5;entryDx=0;entryDy=0;exitX=1;exitY=0.5;exitDx=0;exitDy=0;" edge="1" parent="1" source="WvMqYt2JtQ77nI1b4Kcy-33" target="WvMqYt2JtQ77nI1b4Kcy-25">
          <mxGeometry width="160" relative="1" as="geometry">
            <mxPoint x="307" y="467" as="sourcePoint" />
            <mxPoint x="363" y="403" as="targetPoint" />
          </mxGeometry>
        </mxCell>
        <mxCell id="WvMqYt2JtQ77nI1b4Kcy-38" value="Cange username/&lt;div&gt;password&lt;/div&gt;" style="ellipse;whiteSpace=wrap;html=1;" vertex="1" parent="1">
          <mxGeometry x="410" y="200" width="90" height="50" as="geometry" />
        </mxCell>
        <mxCell id="WvMqYt2JtQ77nI1b4Kcy-39" value="Extend" style="endArrow=open;endSize=12;dashed=1;html=1;rounded=0;entryX=1;entryY=1;entryDx=0;entryDy=0;exitX=0.5;exitY=0;exitDx=0;exitDy=0;" edge="1" parent="1" source="WvMqYt2JtQ77nI1b4Kcy-38" target="WvMqYt2JtQ77nI1b4Kcy-10">
          <mxGeometry width="160" relative="1" as="geometry">
            <mxPoint x="355" y="190" as="sourcePoint" />
            <mxPoint x="393" y="153" as="targetPoint" />
          </mxGeometry>
        </mxCell>
        <mxCell id="WvMqYt2JtQ77nI1b4Kcy-40" value="Change User Role" style="ellipse;whiteSpace=wrap;html=1;" vertex="1" parent="1">
          <mxGeometry x="240" y="400" width="90" height="50" as="geometry" />
        </mxCell>
        <mxCell id="WvMqYt2JtQ77nI1b4Kcy-41" value="" style="endArrow=open;endFill=1;endSize=12;html=1;rounded=0;entryX=0;entryY=0.5;entryDx=0;entryDy=0;" edge="1" parent="1" target="WvMqYt2JtQ77nI1b4Kcy-40">
          <mxGeometry width="160" relative="1" as="geometry">
            <mxPoint x="70" y="440" as="sourcePoint" />
            <mxPoint x="290" y="505" as="targetPoint" />
          </mxGeometry>
        </mxCell>
        <mxCell id="WvMqYt2JtQ77nI1b4Kcy-43" value="Utium/Authentication Use Case Diagram LVL1:" style="text;html=1;align=center;verticalAlign=middle;resizable=0;points=[];autosize=1;strokeColor=none;fillColor=none;" vertex="1" parent="1">
          <mxGeometry width="270" height="30" as="geometry" />
        </mxCell>
        <mxCell id="WvMqYt2JtQ77nI1b4Kcy-44" value="Logout" style="ellipse;whiteSpace=wrap;html=1;" vertex="1" parent="1">
          <mxGeometry x="190" y="270" width="90" height="50" as="geometry" />
        </mxCell>
        <mxCell id="WvMqYt2JtQ77nI1b4Kcy-46" value="" style="endArrow=open;endFill=1;endSize=12;html=1;rounded=0;entryX=0;entryY=1;entryDx=0;entryDy=0;" edge="1" parent="1" target="WvMqYt2JtQ77nI1b4Kcy-44">
          <mxGeometry width="160" relative="1" as="geometry">
            <mxPoint x="70" y="440" as="sourcePoint" />
            <mxPoint x="213" y="393" as="targetPoint" />
          </mxGeometry>
        </mxCell>
        <mxCell id="WvMqYt2JtQ77nI1b4Kcy-47" value="" style="endArrow=open;endFill=1;endSize=12;html=1;rounded=0;entryX=0;entryY=0.5;entryDx=0;entryDy=0;exitX=0.5;exitY=0.5;exitDx=0;exitDy=0;exitPerimeter=0;" edge="1" parent="1" source="WvMqYt2JtQ77nI1b4Kcy-4" target="WvMqYt2JtQ77nI1b4Kcy-44">
          <mxGeometry width="160" relative="1" as="geometry">
            <mxPoint x="80" y="450" as="sourcePoint" />
            <mxPoint x="213" y="323" as="targetPoint" />
          </mxGeometry>
        </mxCell>
        <mxCell id="WvMqYt2JtQ77nI1b4Kcy-48" value="" style="endArrow=open;endFill=1;endSize=12;html=1;rounded=0;entryX=0;entryY=0;entryDx=0;entryDy=0;exitX=0.5;exitY=0.5;exitDx=0;exitDy=0;exitPerimeter=0;" edge="1" parent="1" source="WvMqYt2JtQ77nI1b4Kcy-3" target="WvMqYt2JtQ77nI1b4Kcy-44">
          <mxGeometry width="160" relative="1" as="geometry">
            <mxPoint x="80" y="210" as="sourcePoint" />
            <mxPoint x="200" y="235" as="targetPoint" />
          </mxGeometry>
        </mxCell>
      </root>
    </mxGraphModel>
  </diagram>
</mxfile>
